# xmcd CD database file
#
# Track frame offsets:
#	150
#	20400
#	41599
#	58707
#	80504
#	105976
#	123709
#	143642
#	181763
#
# Disc length: 2882 seconds
#
# Revision: 0
# Processed by: cddbd v1.5.2PL0 Copyright (c) Steve Scherf et al.
# Submitted via: CDex 1.70beta2
#
DISCID=6f0b4009
DTITLE=いえろ～ぜぶら - 東方讃月歌～Smell of Flap～
DYEAR=2008
DGENRE=東方アレンジ
TTITLE0=Nowhere Girl
TTITLE1=風の春秋
TTITLE2=My Dear!
TTITLE3=Luna History ～上弦～
TTITLE4=水歌-mizuuta-
TTITLE5=ティーカップ・スター
TTITLE6=月の律動 ～Rhythm of the moon～
TTITLE7=キミノウタ
TTITLE8=deta
EXTD=YEAR: 2008
EXTT0=
EXTT1=
EXTT2=
EXTT3=
EXTT4=
EXTT5=
EXTT6=
EXTT7=
EXTT8=
PLAYORDER=
